<svg width="185" height="43" viewBox="0 0 185 43" fill="none" xmlns="http://www.w3.org/2000/svg">
<path d="M20.5469 19.25V42H15.8594L6.71875 26.75V42H2.03125V19.25H6.71875L15.875 34.5156V19.25H20.5469ZM23.625 33.7188V33.3906C23.625 32.151 23.8021 31.0104 24.1562 29.9688C24.5104 28.9167 25.026 28.0052 25.7031 27.2344C26.3802 26.4635 27.2135 25.8646 28.2031 25.4375C29.1927 25 30.3281 24.7812 31.6094 24.7812C32.8906 24.7812 34.0312 25 35.0312 25.4375C36.0312 25.8646 36.8698 26.4635 37.5469 27.2344C38.2344 28.0052 38.7552 28.9167 39.1094 29.9688C39.4635 31.0104 39.6406 32.151 39.6406 33.3906V33.7188C39.6406 34.9479 39.4635 36.0885 39.1094 37.1406C38.7552 38.1823 38.2344 39.0938 37.5469 39.875C36.8698 40.6458 36.0365 41.2448 35.0469 41.6719C34.0573 42.099 32.9219 42.3125 31.6406 42.3125C30.3594 42.3125 29.2188 42.099 28.2188 41.6719C27.2292 41.2448 26.3906 40.6458 25.7031 39.875C25.026 39.0938 24.5104 38.1823 24.1562 37.1406C23.8021 36.0885 23.625 34.9479 23.625 33.7188ZM28.125 33.3906V33.7188C28.125 34.4271 28.1875 35.0885 28.3125 35.7031C28.4375 36.3177 28.6354 36.8594 28.9062 37.3281C29.1875 37.7865 29.5521 38.1458 30 38.4062C30.4479 38.6667 30.9948 38.7969 31.6406 38.7969C32.2656 38.7969 32.8021 38.6667 33.25 38.4062C33.6979 38.1458 34.0573 37.7865 34.3281 37.3281C34.599 36.8594 34.7969 36.3177 34.9219 35.7031C35.0573 35.0885 35.125 34.4271 35.125 33.7188V33.3906C35.125 32.7031 35.0573 32.0573 34.9219 31.4531C34.7969 30.8385 34.5938 30.2969 34.3125 29.8281C34.0417 29.349 33.6823 28.974 33.2344 28.7031C32.7865 28.4323 32.2448 28.2969 31.6094 28.2969C30.974 28.2969 30.4323 28.4323 29.9844 28.7031C29.5469 28.974 29.1875 29.349 28.9062 29.8281C28.6354 30.2969 28.4375 30.8385 28.3125 31.4531C28.1875 32.0573 28.125 32.7031 28.125 33.3906ZM75.4375 38.1875V30.6562C75.4375 30.1146 75.349 29.651 75.1719 29.2656C74.9948 28.8698 74.7188 28.5625 74.3438 28.3438C73.9792 28.125 73.5052 28.0156 72.9219 28.0156C72.4219 28.0156 71.9896 28.1042 71.625 28.2812C71.2604 28.4479 70.9792 28.6927 70.7812 29.0156C70.5833 29.3281 70.4844 29.6979 70.4844 30.125H65.9844C65.9844 29.4062 66.151 28.724 66.4844 28.0781C66.8177 27.4323 67.3021 26.8646 67.9375 26.375C68.5729 25.875 69.3281 25.4844 70.2031 25.2031C71.0885 24.9219 72.0781 24.7812 73.1719 24.7812C74.4844 24.7812 75.651 25 76.6719 25.4375C77.6927 25.875 78.4948 26.5312 79.0781 27.4062C79.6719 28.2812 79.9688 29.375 79.9688 30.6875V37.9219C79.9688 38.849 80.026 39.6094 80.1406 40.2031C80.2552 40.7865 80.4219 41.2969 80.6406 41.7344V42H76.0938C75.875 41.5417 75.7083 40.9688 75.5938 40.2812C75.4896 39.5833 75.4375 38.8854 75.4375 38.1875ZM76.0312 31.7031L76.0625 34.25H73.5469C72.9531 34.25 72.4375 34.3177 72 34.4531C71.5625 34.5885 71.2031 34.7812 70.9219 35.0312C70.6406 35.2708 70.4323 35.5521 70.2969 35.875C70.1719 36.1979 70.1094 36.5521 70.1094 36.9375C70.1094 37.3229 70.1979 37.6719 70.375 37.9844C70.5521 38.2865 70.8073 38.526 71.1406 38.7031C71.474 38.8698 71.8646 38.9531 72.3125 38.9531C72.9896 38.9531 73.5781 38.8177 74.0781 38.5469C74.5781 38.276 74.9635 37.9427 75.2344 37.5469C75.5156 37.151 75.6615 36.776 75.6719 36.4219L76.8594 38.3281C76.6927 38.7552 76.4635 39.1979 76.1719 39.6562C75.8906 40.1146 75.5312 40.5469 75.0938 40.9531C74.6562 41.349 74.1302 41.6771 73.5156 41.9375C72.901 42.1875 72.1719 42.3125 71.3281 42.3125C70.2552 42.3125 69.2812 42.099 68.4062 41.6719C67.5417 41.2344 66.8542 40.6354 66.3438 39.875C65.8438 39.1042 65.5938 38.2292 65.5938 37.25C65.5938 36.3646 65.7604 35.5781 66.0938 34.8906C66.4271 34.2031 66.9167 33.625 67.5625 33.1562C68.2188 32.6771 69.0365 32.3177 70.0156 32.0781C70.9948 31.8281 72.1302 31.7031 73.4219 31.7031H76.0312ZM93.4219 38.3125V18H97.9531V42H93.875L93.4219 38.3125ZM82.7344 33.75V33.4219C82.7344 32.1302 82.8802 30.9583 83.1719 29.9062C83.4635 28.8438 83.8906 27.9323 84.4531 27.1719C85.0156 26.4115 85.7083 25.8229 86.5312 25.4062C87.3542 24.9896 88.2917 24.7812 89.3438 24.7812C90.3333 24.7812 91.1979 24.9896 91.9375 25.4062C92.6875 25.8229 93.3229 26.4167 93.8438 27.1875C94.375 27.9479 94.8021 28.849 95.125 29.8906C95.4479 30.9219 95.6823 32.0521 95.8281 33.2812V34C95.6823 35.1771 95.4479 36.2708 95.125 37.2812C94.8021 38.2917 94.375 39.1771 93.8438 39.9375C93.3229 40.6875 92.6875 41.2708 91.9375 41.6875C91.1875 42.1042 90.3125 42.3125 89.3125 42.3125C88.2604 42.3125 87.3229 42.099 86.5 41.6719C85.6875 41.2448 85 40.6458 84.4375 39.875C83.8854 39.1042 83.4635 38.1979 83.1719 37.1562C82.8802 36.1146 82.7344 34.9792 82.7344 33.75ZM87.2344 33.4219V33.75C87.2344 34.4479 87.2865 35.099 87.3906 35.7031C87.5052 36.3073 87.6875 36.8438 87.9375 37.3125C88.1979 37.7708 88.5312 38.1302 88.9375 38.3906C89.3542 38.6406 89.8594 38.7656 90.4531 38.7656C91.224 38.7656 91.8594 38.5938 92.3594 38.25C92.8594 37.8958 93.2396 37.4115 93.5 36.7969C93.7708 36.1823 93.9271 35.474 93.9688 34.6719V32.625C93.9375 31.9688 93.8438 31.3802 93.6875 30.8594C93.5417 30.3281 93.3229 29.875 93.0312 29.5C92.75 29.125 92.3958 28.8333 91.9688 28.625C91.5521 28.4167 91.0573 28.3125 90.4844 28.3125C89.901 28.3125 89.401 28.4479 88.9844 28.7188C88.5677 28.9792 88.2292 29.3385 87.9688 29.7969C87.7188 30.2552 87.5312 30.7969 87.4062 31.4219C87.2917 32.0365 87.2344 32.7031 87.2344 33.4219ZM101.75 19.25H110.234C111.974 19.25 113.469 19.5104 114.719 20.0312C115.979 20.5521 116.948 21.3229 117.625 22.3438C118.302 23.3646 118.641 24.6198 118.641 26.1094C118.641 27.3281 118.432 28.375 118.016 29.25C117.609 30.1146 117.031 30.8385 116.281 31.4219C115.542 31.9948 114.672 32.4531 113.672 32.7969L112.188 33.5781H104.812L104.781 29.9219H110.266C111.089 29.9219 111.771 29.776 112.312 29.4844C112.854 29.1927 113.26 28.7865 113.531 28.2656C113.812 27.7448 113.953 27.1406 113.953 26.4531C113.953 25.724 113.818 25.0938 113.547 24.5625C113.276 24.0312 112.865 23.625 112.312 23.3438C111.76 23.0625 111.068 22.9219 110.234 22.9219H106.438V42H101.75V19.25ZM114.469 42L109.281 31.8594L114.234 31.8281L119.484 41.7812V42H114.469ZM121.25 33.7188V33.3906C121.25 32.151 121.427 31.0104 121.781 29.9688C122.135 28.9167 122.651 28.0052 123.328 27.2344C124.005 26.4635 124.839 25.8646 125.828 25.4375C126.818 25 127.953 24.7812 129.234 24.7812C130.516 24.7812 131.656 25 132.656 25.4375C133.656 25.8646 134.495 26.4635 135.172 27.2344C135.859 28.0052 136.38 28.9167 136.734 29.9688C137.089 31.0104 137.266 32.151 137.266 33.3906V33.7188C137.266 34.9479 137.089 36.0885 136.734 37.1406C136.38 38.1823 135.859 39.0938 135.172 39.875C134.495 40.6458 133.661 41.2448 132.672 41.6719C131.682 42.099 130.547 42.3125 129.266 42.3125C127.984 42.3125 126.844 42.099 125.844 41.6719C124.854 41.2448 124.016 40.6458 123.328 39.875C122.651 39.0938 122.135 38.1823 121.781 37.1406C121.427 36.0885 121.25 34.9479 121.25 33.7188ZM125.75 33.3906V33.7188C125.75 34.4271 125.812 35.0885 125.938 35.7031C126.062 36.3177 126.26 36.8594 126.531 37.3281C126.812 37.7865 127.177 38.1458 127.625 38.4062C128.073 38.6667 128.62 38.7969 129.266 38.7969C129.891 38.7969 130.427 38.6667 130.875 38.4062C131.323 38.1458 131.682 37.7865 131.953 37.3281C132.224 36.8594 132.422 36.3177 132.547 35.7031C132.682 35.0885 132.75 34.4271 132.75 33.7188V33.3906C132.75 32.7031 132.682 32.0573 132.547 31.4531C132.422 30.8385 132.219 30.2969 131.938 29.8281C131.667 29.349 131.307 28.974 130.859 28.7031C130.411 28.4323 129.87 28.2969 129.234 28.2969C128.599 28.2969 128.057 28.4323 127.609 28.7031C127.172 28.974 126.812 29.349 126.531 29.8281C126.26 30.2969 126.062 30.8385 125.938 31.4531C125.812 32.0573 125.75 32.7031 125.75 33.3906ZM139.312 33.7188V33.3906C139.312 32.151 139.49 31.0104 139.844 29.9688C140.198 28.9167 140.714 28.0052 141.391 27.2344C142.068 26.4635 142.901 25.8646 143.891 25.4375C144.88 25 146.016 24.7812 147.297 24.7812C148.578 24.7812 149.719 25 150.719 25.4375C151.719 25.8646 152.557 26.4635 153.234 27.2344C153.922 28.0052 154.443 28.9167 154.797 29.9688C155.151 31.0104 155.328 32.151 155.328 33.3906V33.7188C155.328 34.9479 155.151 36.0885 154.797 37.1406C154.443 38.1823 153.922 39.0938 153.234 39.875C152.557 40.6458 151.724 41.2448 150.734 41.6719C149.745 42.099 148.609 42.3125 147.328 42.3125C146.047 42.3125 144.906 42.099 143.906 41.6719C142.917 41.2448 142.078 40.6458 141.391 39.875C140.714 39.0938 140.198 38.1823 139.844 37.1406C139.49 36.0885 139.312 34.9479 139.312 33.7188ZM143.812 33.3906V33.7188C143.812 34.4271 143.875 35.0885 144 35.7031C144.125 36.3177 144.323 36.8594 144.594 37.3281C144.875 37.7865 145.24 38.1458 145.688 38.4062C146.135 38.6667 146.682 38.7969 147.328 38.7969C147.953 38.7969 148.49 38.6667 148.938 38.4062C149.385 38.1458 149.745 37.7865 150.016 37.3281C150.286 36.8594 150.484 36.3177 150.609 35.7031C150.745 35.0885 150.812 34.4271 150.812 33.7188V33.3906C150.812 32.7031 150.745 32.0573 150.609 31.4531C150.484 30.8385 150.281 30.2969 150 29.8281C149.729 29.349 149.37 28.974 148.922 28.7031C148.474 28.4323 147.932 28.2969 147.297 28.2969C146.661 28.2969 146.12 28.4323 145.672 28.7031C145.234 28.974 144.875 29.349 144.594 29.8281C144.323 30.2969 144.125 30.8385 144 31.4531C143.875 32.0573 143.812 32.7031 143.812 33.3906ZM162.594 28.5938V42H158.078V25.0938H162.312L162.594 28.5938ZM161.969 32.9531H160.719C160.719 31.776 160.859 30.6927 161.141 29.7031C161.432 28.7031 161.854 27.8385 162.406 27.1094C162.969 26.3698 163.661 25.7969 164.484 25.3906C165.307 24.9844 166.26 24.7812 167.344 24.7812C168.094 24.7812 168.781 24.8958 169.406 25.125C170.031 25.3438 170.568 25.6927 171.016 26.1719C171.474 26.6406 171.828 27.2552 172.078 28.0156C172.328 28.7656 172.453 29.6667 172.453 30.7188V42H167.953V31.2188C167.953 30.4479 167.849 29.8542 167.641 29.4375C167.432 29.0208 167.135 28.7292 166.75 28.5625C166.375 28.3958 165.922 28.3125 165.391 28.3125C164.807 28.3125 164.297 28.4323 163.859 28.6719C163.432 28.9115 163.078 29.2448 162.797 29.6719C162.516 30.0885 162.307 30.5781 162.172 31.1406C162.036 31.7031 161.969 32.3073 161.969 32.9531ZM172.031 32.4375L170.422 32.6406C170.422 31.5365 170.557 30.5104 170.828 29.5625C171.109 28.6146 171.521 27.7812 172.062 27.0625C172.615 26.3438 173.297 25.7865 174.109 25.3906C174.922 24.9844 175.859 24.7812 176.922 24.7812C177.734 24.7812 178.474 24.901 179.141 25.1406C179.807 25.3698 180.375 25.7396 180.844 26.25C181.323 26.75 181.688 27.4062 181.938 28.2188C182.198 29.0312 182.328 30.026 182.328 31.2031V42H177.812V31.2031C177.812 30.4219 177.708 29.8281 177.5 29.4219C177.302 29.0052 177.01 28.7188 176.625 28.5625C176.25 28.3958 175.802 28.3125 175.281 28.3125C174.74 28.3125 174.266 28.4219 173.859 28.6406C173.453 28.849 173.115 29.1406 172.844 29.5156C172.573 29.8906 172.37 30.3281 172.234 30.8281C172.099 31.3177 172.031 31.8542 172.031 32.4375Z" fill="#40C057"/>
<path d="M40.0711 43L46.1211 12C46.2877 11.2 46.6711 10.5833 47.2711 10.15C47.8711 9.71667 48.5044 9.5 49.1711 9.5C49.8377 9.5 50.4627 9.65 51.0461 9.95C51.6294 10.25 52.1044 10.6833 52.4711 11.25L54.4211 14.45C55.0544 15.5167 55.9294 16.4667 57.0461 17.3C58.1627 18.1333 59.4711 18.7833 60.9711 19.25V15.5H62.9711V43H60.9711V22.3C59.2711 21.9333 57.6711 21.2833 56.1711 20.35C54.6711 19.4167 53.3377 18.2667 52.1711 16.9L50.7211 24.15L54.9711 28.2V43H51.9711V30.8L46.9711 26.05L43.2711 43H40.0711ZM40.9211 22.85L37.1711 22.15C36.8377 22.0833 36.5461 21.8667 36.2961 21.5C36.0461 21.1333 35.9544 20.7667 36.0211 20.4L37.5211 12.55C37.6877 11.5833 38.1711 10.8417 38.9711 10.325C39.7711 9.80833 40.6544 9.63333 41.6211 9.8L43.4211 10.15L40.9211 22.85ZM52.4711 7.3C51.4711 7.3 50.6127 6.94167 49.8961 6.225C49.1794 5.50833 48.8211 4.65 48.8211 3.65C48.8211 2.65 49.1794 1.79167 49.8961 1.075C50.6127 0.358333 51.4711 0 52.4711 0C53.4711 0 54.3294 0.358333 55.0461 1.075C55.7627 1.79167 56.1211 2.65 56.1211 3.65C56.1211 4.65 55.7627 5.50833 55.0461 6.225C54.3294 6.94167 53.4711 7.3 52.4711 7.3Z" fill="#40C057"/>
</svg>
