<svg width="27" height="43" viewBox="0 0 27 43" fill="none" xmlns="http://www.w3.org/2000/svg">
<path d="M4.07105 43L10.1211 12C10.2877 11.2 10.6711 10.5833 11.2711 10.15C11.8711 9.71667 12.5044 9.5 13.1711 9.5C13.8377 9.5 14.4627 9.65 15.0461 9.95C15.6294 10.25 16.1044 10.6833 16.4711 11.25L18.4211 14.45C19.0544 15.5167 19.9294 16.4667 21.0461 17.3C22.1627 18.1333 23.4711 18.7833 24.9711 19.25V15.5H26.9711V43H24.9711V22.3C23.2711 21.9333 21.6711 21.2833 20.1711 20.35C18.6711 19.4167 17.3377 18.2667 16.1711 16.9L14.7211 24.15L18.9711 28.2V43H15.9711V30.8L10.9711 26.05L7.27105 43H4.07105ZM4.92105 22.85L1.17105 22.15C0.837719 22.0833 0.546052 21.8667 0.296052 21.5C0.0460523 21.1333 -0.045614 20.7667 0.0210527 20.4L1.52105 12.55C1.68772 11.5833 2.17105 10.8417 2.97105 10.325C3.77105 9.80833 4.65439 9.63333 5.62105 9.8L7.42105 10.15L4.92105 22.85ZM16.4711 7.3C15.4711 7.3 14.6127 6.94167 13.8961 6.225C13.1794 5.50833 12.8211 4.65 12.8211 3.65C12.8211 2.65 13.1794 1.79167 13.8961 1.075C14.6127 0.358333 15.4711 0 16.4711 0C17.4711 0 18.3294 0.358333 19.0461 1.075C19.7627 1.79167 20.1211 2.65 20.1211 3.65C20.1211 4.65 19.7627 5.50833 19.0461 6.225C18.3294 6.94167 17.4711 7.3 16.4711 7.3Z" fill="#40C057"/>
</svg>
