<svg width="40" height="40" viewBox="0 0 40 40" fill="none" xmlns="http://www.w3.org/2000/svg">
<path d="M7.1 31.25C9.2 29.7833 11.2833 28.6583 13.35 27.875C15.4167 27.0917 17.6333 26.7 20 26.7C22.3667 26.7 24.5917 27.0917 26.675 27.875C28.7583 28.6583 30.85 29.7833 32.95 31.25C34.4167 29.45 35.4583 27.6333 36.075 25.8C36.6917 23.9667 37 22.0333 37 20C37 15.1667 35.375 11.125 32.125 7.875C28.875 4.625 24.8333 3 20 3C15.1667 3 11.125 4.625 7.875 7.875C4.625 11.125 3 15.1667 3 20C3 22.0333 3.31667 23.9667 3.95 25.8C4.58333 27.6333 5.63333 29.45 7.1 31.25ZM20 21.5C18.0667 21.5 16.4417 20.8417 15.125 19.525C13.8083 18.2083 13.15 16.5833 13.15 14.65C13.15 12.7167 13.8083 11.0917 15.125 9.775C16.4417 8.45833 18.0667 7.8 20 7.8C21.9333 7.8 23.5583 8.45833 24.875 9.775C26.1917 11.0917 26.85 12.7167 26.85 14.65C26.85 16.5833 26.1917 18.2083 24.875 19.525C23.5583 20.8417 21.9333 21.5 20 21.5ZM20 40C17.2667 40 14.6833 39.475 12.25 38.425C9.81667 37.375 7.69167 35.9417 5.875 34.125C4.05833 32.3083 2.625 30.1833 1.575 27.75C0.525 25.3167 0 22.7333 0 20C0 17.2333 0.525 14.6417 1.575 12.225C2.625 9.80833 4.05833 7.69167 5.875 5.875C7.69167 4.05833 9.81667 2.625 12.25 1.575C14.6833 0.525 17.2667 0 20 0C22.7667 0 25.3583 0.525 27.775 1.575C30.1917 2.625 32.3083 4.05833 34.125 5.875C35.9417 7.69167 37.375 9.80833 38.425 12.225C39.475 14.6417 40 17.2333 40 20C40 22.7333 39.475 25.3167 38.425 27.75C37.375 30.1833 35.9417 32.3083 34.125 34.125C32.3083 35.9417 30.1917 37.375 27.775 38.425C25.3583 39.475 22.7667 40 20 40ZM20 37C21.8333 37 23.625 36.7333 25.375 36.2C27.125 35.6667 28.85 34.7333 30.55 33.4C28.85 32.2 27.1167 31.2833 25.35 30.65C23.5833 30.0167 21.8 29.7 20 29.7C18.2 29.7 16.4167 30.0167 14.65 30.65C12.8833 31.2833 11.15 32.2 9.45 33.4C11.15 34.7333 12.875 35.6667 14.625 36.2C16.375 36.7333 18.1667 37 20 37ZM20 18.5C21.1333 18.5 22.0583 18.1417 22.775 17.425C23.4917 16.7083 23.85 15.7833 23.85 14.65C23.85 13.5167 23.4917 12.5917 22.775 11.875C22.0583 11.1583 21.1333 10.8 20 10.8C18.8667 10.8 17.9417 11.1583 17.225 11.875C16.5083 12.5917 16.15 13.5167 16.15 14.65C16.15 15.7833 16.5083 16.7083 17.225 17.425C17.9417 18.1417 18.8667 18.5 20 18.5Z" fill="#40C057"/>
</svg>
